<?xml version="1.0" encoding="iso-8859-1"?>
<!-- Generator: Adobe Illustrator 19.0.0, SVG Export Plug-In . SVG Version: 6.00 Build 0)  -->
<svg version="1.1" id="Layer_1" xmlns="http://www.w3.org/2000/svg" xmlns:xlink="http://www.w3.org/1999/xlink" x="0px" y="0px"
	 viewBox="0 0 512 512" style="enable-background:new 0 0 512 512;" xml:space="preserve">
<polygon style="fill:#B5C1C6;" points="452.822,373.126 442.051,242.964 339.132,192.824 180.838,275.61 326.594,418.762 "/>
<polygon style="fill:#F94F79;" points="441.328,366.979 430.557,248.7 327.638,203.137 169.345,278.366 315.1,408.449 "/>
<g>
	<polygon style="fill:#F2F2F2;" points="340.361,264.726 335.475,290.904 324.789,266.511 321.499,259.001 341.864,256.665 	"/>
	<polygon style="fill:#F2F2F2;" points="373.079,258.838 368.91,284.635 357.568,261.092 354.003,253.691 374.389,250.728 	"/>
	<polygon style="fill:#F2F2F2;" points="414.243,252.377 408.091,279.411 398.601,253.361 395.804,245.684 416.056,244.411 	"/>
	<polygon style="fill:#F2F2F2;" points="467.364,243.786 459.289,265.828 451.692,243.617 449.001,235.751 470.224,235.979 	"/>
	<polygon style="fill:#F2F2F2;" points="335.287,356.851 343.312,336.355 350.959,356.994 353.873,364.858 332.229,364.66 	"/>
	<polygon style="fill:#F2F2F2;" points="366.501,359.302 376.746,340.011 382.06,361.198 384.102,369.342 362.564,366.717 	"/>
	<polygon style="fill:#F2F2F2;" points="404.113,362.8 414.883,340.011 419.663,364.76 421.228,372.855 400.59,370.255 	"/>
</g>
<path style="fill:#B5C1C6;" d="M341.744,174.691c0,0-38.423-79.931-110.113-110.113v110.113"/>
<path style="fill:#C3D1D8;" d="M496.003,237.399l-191.875,33.134l4.838,51.231c1.745,18.526,16.29,33.249,34.785,35.224
	l121.041,12.925l-1.411,5.998l-8.965,38.087l-167.988,32.507c-16.478,3.197-33.468-2.069-45.255-14.023l-44.795-45.401
	l-34.534-35.004L84.49,273.668L0,352.035l49.998-128.533L0,101.259l90.749,68.211H512L496.003,237.399z"/>
<path style="fill:#B5C1C6;" d="M463.381,375.91l-8.965,38.087l-167.988,32.507c-16.478,3.197-33.468-2.069-45.255-14.023
	l-44.795-45.401l-34.534-35.004L84.49,273.667L0,352.034l49.998-128.533L0,101.259l90.749,68.211c0,0,72.328,173.15,180.464,220.17
	C351.107,424.383,428.439,394.102,463.381,375.91z"/>
<g>
	<path style="fill:#4D4D4D;" d="M387.559,226.126c-2.613,0-5.167-1.306-6.654-3.686l-6.525-10.449
		c-2.293-3.671-1.176-8.505,2.496-10.798c3.67-2.291,8.504-1.176,10.798,2.496l6.525,10.449c2.293,3.671,1.176,8.505-2.496,10.798
		C390.413,225.74,388.978,226.126,387.559,226.126z"/>
	<path style="fill:#4D4D4D;" d="M437.34,226.126c-1.418,0-2.853-0.385-4.144-1.191c-3.672-2.292-4.789-7.127-2.496-10.798
		l6.525-10.449c2.291-3.672,7.128-4.789,10.798-2.496c3.672,2.292,4.789,7.127,2.496,10.798l-6.525,10.449
		C442.508,224.819,439.953,226.126,437.34,226.126z"/>
</g>
<g>
	<path style="fill:#B5C1C6;" d="M264.947,212.981c-1.926,6.595-3.455,12.013-4.339,17.351c-0.914,5.287-1.369,10.304-1.367,15.341
		c0.017,5.036,0.469,10.05,1.388,15.333c0.885,5.334,2.406,10.751,4.319,17.36c-6.633-1.966-11.984-6.789-15.722-12.642
		c-3.719-5.896-5.665-12.982-5.656-20.051c0.009-7.068,1.954-14.15,5.677-20.042C252.985,219.781,258.329,214.961,264.947,212.981z"
		/>
	<path style="fill:#B5C1C6;" d="M227.333,212.981c-1.927,6.595-3.455,12.013-4.339,17.351c-0.914,5.287-1.369,10.304-1.367,15.341
		c0.017,5.036,0.469,10.05,1.388,15.333c0.885,5.334,2.406,10.751,4.319,17.36c-6.633-1.966-11.985-6.789-15.722-12.642
		c-3.719-5.896-5.665-12.982-5.656-20.051c0.009-7.068,1.954-14.15,5.677-20.042C215.371,219.781,220.714,214.961,227.333,212.981z"
		/>
	<path style="fill:#B5C1C6;" d="M178.748,328.519l-51.72,72.095c0,0,96.699-27.739,120.992-52.032"/>
</g>
<g>
</g>
<g>
</g>
<g>
</g>
<g>
</g>
<g>
</g>
<g>
</g>
<g>
</g>
<g>
</g>
<g>
</g>
<g>
</g>
<g>
</g>
<g>
</g>
<g>
</g>
<g>
</g>
<g>
</g>
</svg>
